<svg xmlns="http://www.w3.org/2000/svg" width="39" height="39" viewBox="0 0 39 39"><defs><style>.a{fill:#fff;}.a,.b{stroke:#000;}.b,.e{fill:none;}.b{stroke-linecap:square;stroke-width:3px;}.c{font-size:8px;font-family:ToppanBunkyuMinchoPr6N-Regular, Toppan Bunkyu Mincho;}.d,.f{stroke:none;}.f{fill:#000;}</style></defs><g transform="translate(-65 -753)"><g class="a" transform="translate(65 753)"><rect class="d" width="39" height="39"/><rect class="e" x="0.5" y="0.5" width="38" height="38"/></g><g transform="translate(2.178 -2.985)"><g transform="matrix(-0.07, 0.998, -0.998, -0.07, 91.772, 763.479)"><path class="b" d="M.044,17.906C.238-15.024,8.672,7.573,8.672,7.573" transform="translate(0 0.054)"/><g transform="translate(11.711 15.589) rotate(-169)"><path class="d" d="M 1.133081316947937 10.73592948913574 L 0.555414617061615 0.9262334704399109 L 9.478402137756348 6.38843297958374 L 1.133081316947937 10.73592948913574 Z"/><path class="f" d="M 1.58682382106781 9.935776710510254 L 8.463468551635742 6.353387832641602 L 1.110819458961487 1.852469563484192 L 1.58682382106781 9.935776710510254 M 0.6793302297592163 11.53609561920166 L 2.461242729623336e-07 -4.574585091177141e-06 L 10.49334049224854 6.423485279083252 L 0.6793302297592163 11.53609561920166 Z"/></g></g></g><text class="c" transform="translate(71 785)"><tspan x="0" y="0">1つ戻る</tspan></text></g></svg>